# xmcd
#
# Track frame offsets: 
#        150
#        15718
#        31223
#        52565
#        82554
#        108853
#        130391
#        152285
#        171285
#        193605
#
# Disc length: 2906 seconds
#
# Revision: 0
# Processed by: cddbd v1.5.2PL0 Copyright (c) Steve Scherf et al.
# Submitted via: ExactAudioCopy v1.2
#
DISCID=630b580a
DTITLE=Randy Morrison Band - Hard Place
DYEAR=2018
DGENRE=Blues
TTITLE0=You Deserve Better
TTITLE1=Our Ship
TTITLE2=You'll Get Tired of Winning
TTITLE3=Trouble
TTITLE4=Sensible Shoes
TTITLE5=Hard Place and the Rock
TTITLE6=Brand New Cadillac
TTITLE7=There Goes the Neighborhood
TTITLE8=Right Place, Wrong Time
TTITLE9=Into the Midnight Sun
EXTD=
EXTT0=
EXTT1=
EXTT2=
EXTT3=
EXTT4=
EXTT5=
EXTT6=
EXTT7=
EXTT8=
EXTT9=
PLAYORDER=
